<?xml version="1.0" encoding="utf-8"?>

<!DOCTYPE svg PUBLIC "-//W3C//DTD SVG 1.1//EN" "http://www.w3.org/Graphics/SVG/1.1/DTD/svg11.dtd">
<svg version="1.1" id="Layer_1" xmlns="http://www.w3.org/2000/svg" xmlns:xlink="http://www.w3.org/1999/xlink" x="0px" y="0px"
	 viewBox="0 0 1835.822 1675.201" enable-background="new 0 0 1835.822 1675.201" xml:space="preserve">
<g>
	<g>
		<path d="M863.131,105.928c21.729,4.184,28.12-18.715,16.532-26.473c-6.053-4.672-16.135-1.639-18.476,5.643
			c-1.253,2.447,1.464,3.887,3.279,4.789c2.458-0.491,4.683-1.721,7.107-2.341c3.899-0.574,7.529,4.836,4.719,8.009
			c-5.726,6.545-16.919,5.082-21.614-1.944c-11.965-15.493,4.109-43.103,56.564-44.446c29.002-0.982,60.364,8.159,62.149,24.061
			c1.314,15.493-11.478,30.086-17.879,23.733c-1.815-1.944-4.215-5.796-1.335-7.786c3.197-3.231,8.208-1.732,12.212-2.892
			c2.377-2.529-0.796-6.124-2.658-8.079c-6.112-4.777-15.35-0.679-18.008,6.077c-3.22,6.299-0.784,14.753,5.527,18.09
			c16.312,9.895,31.372-11.642,29.436-27.796c-2.923-26.124-56.622-49.735-106.713-29.132
			C838,61.797,838.449,101.25,863.131,105.928z"/>
		<path d="M47.567,383.252c3.7,3.056,8.816,2.774,13.313,3.231c-0.216,0.293-0.556,0.768-0.873,1.211h7.482
			c-1.79-0.455-3.673-0.561-5.508-0.279c-0.093-0.316-0.292-0.948-0.386-1.264c4.414-1.054,9.589-1.112,12.868-4.73
			c3.372-2.798,0.796-9.988-3.841-8.922c-4.285,2.599-7.481,7.459-12.856,7.857c-14.71,0.529-9.127-15.044-7.494-23.558
			c1.675-13.289,8.746-25.373,17.68-35.114c2.927,6.218,5.14,13.102,10.409,17.833c17.388,17.411,52.38,16.075,59.164-1.639
			c-2.143-0.386-4.426-1.698-6.522-0.527c-5.246,2.342-10.069,6.006-15.971,6.533c-13.861,1.855-32.805-10.497-38.322-20.291
			c-5.994-10.202,8.643-13.906,22.703-19.12c10.687-3.775,8.213-5.176,42.621-2.938c1.616,0.328,4.695,0.199,4.754,2.505
			c0.457,5.374-0.515,10.854,0.714,16.181c3.292,17.089,22.413,39.264,38.065,47.83c7.525,4.219,35.002,12.942,57.267,10.339
			c43.453-5.631,62.108-23.75,66.282-25.173c5.744,6.323,6.759,14.937,37.76,33.323c-1.435,0.324-2.819,0.715-4.16,1.156h27.861
			c-0.189-0.131-0.378-0.262-0.565-0.392c7.927-5.375,13.429-14.976,11.146-24.717c-0.492-4.813-6.943-7.517-10.725-4.531
			c0.703,5.046,5.713,10.104,2.47,15.162c-2.202,3.431-4.496,7.389-8.407,9.051c-15.8,3.084-44.087-25.012-48.767-32.597
			c1.894-4.793,24.048-19.567,25.408-25.63c-0.152-1.885-0.55-3.723-0.901-5.573c-9.557,1.509-19.498,19.562-28.452,22.633
			c-2.833-3.489-4.414-7.752-6.452-11.697c9.719-2.939,18.172-9.004,25.584-15.76c2.846-2.224,0.668-6.053-2.693-5.362
			c-7.136,1.826-19.281,14.338-25.127,12.774c-8.128-17.556,4.802-11.89,20.326-20.689c3.22-1.792,7.201-3.993,7.376-8.173
			c-5.799-7.234-24.34,11.729-30.232,7.857c-1.815-3.934-1.839-8.992,0.608-12.657c0.686-0.327,44.278-11.815,37.421-20.643
			c-8.793-4.122-13.181,10.52-37.386,8.43c1.522-4.566,2.482-9.332,4.391-13.757c6.522-1.721,13.605-0.843,19.869-3.607
			c5.527-2.739,9.684-8.548,9.929-14.776c0.106-5.632-4.73-9.566-5.866-14.823c4.76-6.347,46.35-21.786,65.475-25.42
			c20.515-3.843,61.793-2.381,68.05,0.55c0.211,4.578,0.913,9.379-0.316,13.863c-12.317,3.342-42.061-10.072-89.665,16.79
			c-26.372,15.218-36.654,53.867-29.353,75.65c7.289,21.01,27.859,18.928,32.163,11.802c1.791-5.562-2.564-12.224-7.892-14.004
			c-5.971,0.082-7.669,7.247-10.315,11.439c-14.035-12.744-9.492-43.276-0.48-57.431c32.633-50.898,107.342-36.89,110.307-34.669
			c7.52,5.783,9.654,16.281,40.875,21.708c27.769,4.656,49.884-9.299,51.647-9.308c6.697,1.897,10.702,8.887,17.692,10.163
			c3.582-6.423-1.242-7.571-11.837-15.479c4.531-4.075,9.297-7.88,13.547-12.236c2.049,7.704,4.32,16.345,11.287,21.122
			c11.557,7.564,28.382,7.88,39.119-1.347c6.288-5.55,4.649-15.995-1.299-21.17c-2.564-2.728-6.463-2.951-9.917-3.349
			c0.726,5.385,5.093,9.261,6.205,14.472c1.2,10.013-12.613,17.167-30.361,5.281c-11.413-8.008-14.436-36.105,2.389-51.588
			c2.986-2.717,5.445-6.487,9.484-7.693c2.447,3.911,4.485,8.547,9.063,10.432c7.81,4.555,22.235-1.323,19.647-11.721
			c-3.653-0.96-5.925,2.892-8.887,4.285c-5.257,3.396-12.493-0.574-13.664-6.404c-1.206-2.26,1.967-3.419,3.583-4.005
			c56.21-17.192,68.373-2.848,139.45-4.168c7.868-0.14,15.619,1.745,23.499,1.347c12.891-0.772,25.829-0.117,38.72-1.054
			c12.575-0.292,24.799-3.618,37.292-4.789c8.013-0.821,44.33-2.067,62.512-28.031c8.419,41.59,136.908,33.527,161.169,33.264
			c34.434-0.268,112.315-11.222,140.737,9.402c-2.132,2.81-4.297,6.662-8.36,6.533c-4.508,0.386-7.224-3.712-10.702-5.737
			c-1.99-0.316-4.004,0.434-5.351,1.885c3.115,7.166,12.282,10.222,19.483,8.173c3.981-0.995,6.264-4.649,8.583-7.716
			c3.325,0.667,7.037,1.1,9.496,3.747c26.593,27.66,13.665,48.737,2.248,55.885c-10.595,6.808-27.557-0.511-27.913-8.489
			c2.068-6.593,14.496-10.466,8.407-16.052c-3.864-0.563-7.177,2.189-9.636,4.812c-7.997,8.149-2.552,24.506,8.758,26.18
			c6.487,1.03,13.535,1.71,19.694-1.135c10.866-5.269,18.839-15.923,20.923-27.808c3.032,5.163,6.979,9.695,11.018,14.097
			c-3.747,3.337-8.395,5.515-12.013,8.98c-2.143,1.756,0.082,5.106,2.588,4.66c6.662,0.925,8.887-8.208,15.268-8.22
			c7.448,0.956,31.438,14.81,56.775,8.781c14.132-3.279,28.896-9.859,36.437-22.973c1.826-3.758,5.339-6.603,9.695-6.369
			c20.199-0.038,74.079-4.032,100.87,31.391c14.736,19.493,16.292,46.772,9.542,57.618c-2.119,3.489-5.339,6.076-8.407,8.676
			c0.656-4.191,2.869-10.374-2.154-12.715c-6.358-2.213-13.102,4.531-11.744,10.924c1.026,12.527,24.419,11.79,30.197-7.177
			c9.528-40.374-12.907-98.807-108.844-95.472c-4.883-0.141-10.034,0.797-14.671-1.054c-1.663-3.115-0.726-6.756-0.691-10.105
			c11.111-2.588,22.632-2.634,33.978-3.185c48.885-1.354,70.064,6.95,102.087,25.783c-11.337,13.515-5.393,26.989,6.932,30.49
			c5.655,2.19,11.673,0.562,17.504,0.504c3.852,4.297,4.531,10.608,6.334,15.982c-11.802,0.281-23.101-4.157-34.833-4.344
			c-0.387,3.489,2.635,5.737,5.515,6.861c22.266,8.893,31.008,3.259,31.473,8.851c0.187,4.66,0.937,9.882-1.405,14.12
			c-9.753-1.229-19.46-3.653-28.3-8.021c-3.653-3.021-8.536,4.52-3.677,5.726c10.609,3.864,21.708,6.253,32.55,9.402
			c-0.667,4.813,1.171,11.451-2.974,14.894c-18.962-3.314-19.256-12.767-26.777-11.205c-2.963,0.316-2.108,4.308-0.293,5.655
			c7.411,5.842,17.645,7.271,24.459,13.898c-0.867,4.262-2.822,8.208-4.449,12.212c-27.564-17.248-18.085-17.719-30.864-18.617
			c1.82,9.457-0.612,4.564,27.925,25.385c-3.338,4.423-18.423,32.426-41.425,30.957c-4.859-0.386-11.439,0.89-14.437-3.993
			c-2.599-5.082-3.337-10.971-6.674-15.725c-1.347,1.194-2.822,2.26-3.852,3.735c0.253,25.092,16.522,21.996,28.51,21.731
			c27.006-0.915,36.159-24.082,43.662-32.094c2.986,0.761,5.55,2.575,8.196,4.121c56.1,34.587,156.187,15.427,153.196-58.297
			c-0.19-3.672,2.672-5.074,32.503-3.77c8.236,0.362,30.299,6.813,34.412,12.177c-1.745,15.889-15.689,28.183-30.911,31.04
			c-8.922,1.546-16.872-4.953-25.748-4.028c-11.634,3.794,25.774,23.973,51.693-0.012c6.405-5.948,9.929-14.32,11.369-22.832
			c11.286,10.238,25.813,33.639,21.579,52.525c-4.288,19.466-16.518,9.647-22.106,10.397c-3.547,1.417-1.311,6.124,1.335,7.236
			c3.864,1.44,8.161,1.007,12.224,0.89c6.404-0.199,11.661-4.929,14.823-10.163c2.483-4.039,2.155-8.969,2.049-13.512
			c-1.414-41.064-27.039-47.237-28.908-56.846c-1.653-7.864-1.822-32.448-34.248-46.729c-6.919-3.337-14.705-3.618-22.164-4.636
			c-28.029-3.625-32.423,6.927-42.045,2.002c-7.774-4.601-13.102-17.614-53.262-9.121c-2.716,0.399-4.8,2.47-5.082,5.222
			c3.161,3.009,7.623,1.37,11.358,0.656c14.624-3.876,30.079,0.563,42.983,7.681c-4.871,2.599-9.882,5.222-15.455,5.726
			c-3.126,0.035-4.484,3.22-6.72,4.824c-2.471-0.327-4.835-1.042-7.282-1.299c-1.229,1.686-2.096,3.583-3.021,5.433
			c-2.177-0.515-4.356-1.066-6.557-1.323c-1.92,1.92-2.974,4.461-4.238,6.803c-1.862-0.679-3.595-2.189-5.585-2.166
			c-1.944,1.077-2.903,3.337-4.273,4.999c-2.132,0.012-4.684-1.194-6.428,0.469c-6.194,5.456-16.685,4.777-20.818,12.809
			c-1.756-0.597-3.489-1.229-5.257-1.627c-2.611,1.721-4.145,4.824-6.99,6.124c-3.349-0.187-6.838-2.505-9.976-0.386
			c-4.684,2.377-10.784,4.122-15.643,1.534c-0.598-5.375-1.206-10.889-0.492-16.264c6.662-1.944,13.816-1.874,20.338-4.485
			c34.838-13.502,43.805-66.642-11.802-68.168c-26.115-0.349-34.9,8.274-42.385,10.374c-5.948-2.366-10.514-7.212-15.83-10.678
			c-31.632-24.205-84.731-23.624-123.046-14.554c-2.764,0.492-5.901,1.441-8.442-0.246c-4.836-2.881-7.986-8.021-13.231-10.304
			c-21.285-8.242-40.833,3.976-34.517,11.229c5.99-0.707,20.839-19.242,43.076,2.529c-47.866,11.697-53.453,18.338-87.159,33.966
			c-4.507-5.492-10.222-10.526-12.001-17.669c-4.916-20.453,10.239-25.061,19.705-21.111c3.009,1.323,6.205,2.026,9.484,2.202
			c-0.604-17.362-29.556-20.175-35.664-1.229c-1.229,4.18-1.3,8.583-1.92,12.868c-8.405-12.783,1.398-10.161-25.197-29.213
			c0.597-3.244,1.03-6.686-0.422-9.789c-4.332-10.245-9.776-21.251-20.267-26.379c-27.329-13.587-96.228-9.304-134.638,1.229
			c-23.746,6.522-48.205,9.894-72.652,12.458c9.554-3.208,19.343-5.784,28.674-9.636c5.854-2.353,9.987-7.599,15.959-9.741
			c2.845-1.312,6.205-2.014,8.419-4.379c0.797-2.33,0.597-4.883,0.679-7.306c0.48-3.653-3.22-6.908-6.78-6.182
			c-10.178,1.666-9.844-0.06-10.128,14.683c-22.498,16.982-59.747,23.732-86.316,11.861c8.236,0.788,47.412,6.317,55.546-7.54
			c4.918-7.271-0.047-17.821-8.008-20.315c-8.266-2.388-18.137-0.761-24.108,5.761c-1.546,1.604-1.335,3.992-1.686,6.03
			c6.581-2.143,12.376-7.072,19.624-6.686c16.053-0.355,13.554,13.645,0.55,17.692c-33.223,7.354-39.062-2.231-62.641-6.299
			c0.457,2.447,0.27,5.55,2.787,6.967c70.779,49.098,163.612-14.818,256.056,5.995c19.263,4.684,30.323,12.261,33.381,30.501
			c-9.402-4.098-18.347-9.695-28.616-11.393c-92.419-17.655-131.308,4.358-193.426,2.131c-6.286-0.351-48.336-5.149-64.468-16.123
			c-6.03-3.851-10.549-10.666-10.198-17.996c0.703-9.976,14.601-16.006,22.024-9.074c1.183,3.138,1.206,6.58,1.874,9.835
			c1.826-1.358,4.671-2.424,4.426-5.199c-0.068-18.179-26.207-17.837-33.792-1.604c-8.575-19.017-41.23-13.66-31.54,5.623
			c1.452,1.382,3.478,0.422,5.222,0.328c-0.176-3.126-2.002-7.025,0.621-9.613c2.365-2.739,6.545-3.313,9.706-1.662
			c25.101,12.198-2.189,42.258-72.301,43.064c-102.635,0.885-102.808-15.988-192.372-1.37c-8.945,1.405-17.048,5.48-24.986,9.601
			c-3.076-20.911,48.728-38.26,109.733-30.079c60.471,7.71,77.897,19.325,116.887,16.123c18.008-1.298,52.755-7.069,64.842-19.553
			c2.213-2.073,1.756-5.351,2.213-8.079c-15.213,4.007,1.432,6.238-42.502,9.238c-10.219,0.56-31.439,0.553-31.508-9.683
			c1.276-4.367,6.276-6.522,10.514-6.44c6.252-0.176,11.088,5.14,17.422,4.555c-4.631-10.989-23.882-11.831-29.986-7.212
			c-7.743,7.114-4.699,23.733,16.088,25.97c11.076,0.726,22.059-1.498,33.077-2.295c-25.45,11.886-54.746,4.884-78.518-10.28
			c-3.981-2.295-1.3-7.376-2.061-10.959c-3.911-3.009-8.63-5.14-13.43-6.217c-2.717,1.639-2.717,5.187-3.255,7.962
			c-1.309,11.168,4.249,10,10.198,11.533c7.606,1.376,23.598,15.289,42.502,16.474c-77.316-1.965-121.94-31.849-190.207-16.462
			c-20.577,4.455-39.253,13.279-39.751,38.673c-4.367,4.309-11.111,5.878-14.355,11.393c-2.798,4.66-5.504,9.367-8.559,13.875
			c-3.045-6.522-6.698-13.875-14.144-16.111c-8.875-3.208-17.773,2.401-23.558,8.77c-0.597,2.025,0.913,3.735,2.283,4.999
			c4.543-1.288,8.126-5.047,12.938-5.468c17.364-0.245,26.871,23.721,1.393,42.362c-30.522-18.458-73.978-27.777-87.546-33.639
			c4.988-7.529,14.039-11.487,22.902-11.533c9.051-0.492,14.191,8.77,22.598,10.561c0.527-2.447,1.276-4.871,1.299-7.376
			c-1.441-3.067-4.941-4.144-7.833-5.351c-31.44-11.734-44.39,9.483-47.677,12.271c-10.655,0.235-21.006-3.36-31.602-4.109
			c-55.631-1.971-78.857,13.237-99.956,26.063c-4.601,2.962-9.754,8.185-15.584,4.871c-13.536-6.65-29.19-9.238-44.001-5.877
			c-46.49,11.253-37.654,64.346,9.882,70.182c3.115,0.433,6.299,0.468,9.343,1.276c0.598,5.012,1.955,11.217-1.264,15.549
			c-8.15,1.511-16.65,1.148-24.916,0.668c-3.688,0.106-5.538-3.419-8.185-5.327c-1.944,0.035-3.829,0.562-5.714,0.96
			c-1.464-1.299-2.845-2.716-4.52-3.747c-1.78,0-3.559,0.094-5.327,0.27c-1.358-1.686-2.646-3.454-4.238-4.918
			c-2.705,0.105-5.199,1.253-7.704,2.154c-0.75-2.74-1.335-5.573-2.728-8.067c-2.248,0.117-4.415,0.738-6.592,1.288
			c-1.206-1.955-1.979-4.379-3.899-5.772c-1.616,0.164-3.22,0.504-4.812,0.808c-4.415-4.156-9.918-6.814-14.858-10.245
			c-4.052-3.009-9.461-0.515-13.793-2.693c-2.822-1.265-5.433-2.939-8.091-4.496c6.076-5.877,14.636-7.282,22.68-8.43
			c20.804-2.6,22.677,8.629,30.501,9.109c4.812,0.023,5.093-7.915,0.784-9.074c-20.772-8.039-25.984-11.742-48.79-3.056
			c-6.334,2.318-11.216,9.121-18.511,8.056c-19.96-2.317-33.531-7.582-61.353,1.171c-34.484,11.318-34.02,45.797-34.458,49.047
			c-0.422,3.489-3.7,5.456-5.925,7.798C38.531,338.264,36.983,374.945,47.567,383.252z M1662.444,339.703
			c-17.559,13.913-59.212,17.537-77.815,12.411c-11.332-3.661-12.893,2.807-45.313-10.046c-2.271-1.054-4.836-1.955-6.311-4.086
			c-0.152-3.08,2.342-5.527,3.255-8.372c1.1-2.599,2.131-7.131,5.995-5.41c33.777,9.414,78.486,0.151,109.487-16.275
			c10.772-5.796,21.31-12.457,33.112-15.947C1686.212,310.385,1677.396,328.943,1662.444,339.703z M1744.382,265.704
			c7.951,6.85,10.678,17.282,14.004,26.79c-39.869-16.171-35.263-10.661-66.201-10.76c-2.377,0.047-2.447-2.939-3.15-4.555
			c-2.237-8.957-7.505-16.685-12.833-24.061C1702.116,248.973,1724.488,248.587,1744.382,265.704z M1551.751,299.577
			c4.087-0.129,7.892,1.382,11.709,2.658c4.098-0.058,6.369-5.093,10.549-5.281c2.857,0.491,5.445,1.932,8.301,2.517
			c2.272-0.445,2.951-2.997,4.18-4.636c2.038,0.351,4.063,0.773,6.17,0.808c0.89-1.054,1.662-2.225,2.494-3.349
			c1.897,0.047,3.829,0.328,5.749,0.035c1.604-1.077,1.71-3.325,2.576-4.929c2.588,0.187,5.292,0.983,7.868,0.211
			c0.984-1.44,1.546-3.115,2.271-4.707c2.599,0.059,5.41,0.878,7.927-0.234c0.457-1.557,0.855-3.138,1.218-4.73
			c3.454-0.328,7.002-0.258,10.35-1.393c0.035-1.417,0.082-2.833,0.152-4.25c2.787,0.164,6.03,1.768,8.606-0.012
			c1.476-1.581,2.119-3.735,3.115-5.632c2.061,0.609,4.099,1.312,6.253,1.675c2.224-2.646,3.337-6.428,6.697-7.973
			c3.489-1.721,6.99-3.607,10.831-4.438c3.138,0.386,4.109,3.864,5.479,6.205c2.939,6.545,6.475,12.868,8.805,19.659
			c-0.164,0.456-0.48,1.358-0.633,1.803c-10.128,4.297-21.146,6.288-31.239,10.748c-18.805,8.161-35.876,20.666-56.12,25.256
			c-22.412,3.89-46.233,1.222-53.661-2.845c-0.035-5.082,1.698-9.999,2.623-14.964
			C1544.843,298.254,1549.151,299.659,1551.751,299.577z M1522.315,215.873c11.427-3.465,23.394-7.025,35.454-5.141
			c20.693,3.119,36.734,25.466,22.867,39.013c-8.583,8.899-21.146,11.416-32.457,15.046c-6.823,2.093-5.472-0.013-11.041-14.788
			c0.199-1.967,2.763-1.803,4.109-2.646c5.948-1.874,10.444-6.44,14.776-10.69c2.366-2.096,0-5.163-0.444-7.587
			c-7.857,2.54-12.962,9.566-20.174,13.184c-3.478-0.27-5.058-4.005-7.154-6.288c-3.864-5.55-8.898-10.315-12.013-16.334
			C1517.117,217.102,1520.138,216.739,1522.315,215.873z M1508.874,223.554c0.351-0.047,1.03-0.129,1.37-0.164
			c1.787,1.474,16.327,20.597,16.801,21.286c-4.192,2.366-8.98,0.351-13.02-1.288
			C1505.172,239.082,1502.832,235.008,1508.874,223.554z M1285.766,225.228c23.125-12.927,49.095-19.039,74.092-27.177
			c4.403-0.55,3.689,5.842,3.618,8.77c0.93,8.112-45.303,8.134-46.6,19.94c1.92,6.667,20.805-6.805,43.404-9.917
			c-0.503,4.625-5.327,5.608-8.699,7.494c-23.646,13.978-59.84,10.997-72.055,5.948
			C1279.947,227.43,1283.635,226.703,1285.766,225.228z M469.652,203.743c31.391,5.246,72.864,23.44,84.29,30.817
			c-19.002,7.066-35.221,3.323-43.029,3.279c-12.095,0.27-24.939-2.927-34.248-10.912c10.772,1.382,20.9,6.334,31.883,6.334
			c2.682-0.398,2.237-3.501,0.316-4.543c-3.481-1.972-5.115-2.198-34.329-8.43C465.285,218.382,468.623,207.977,469.652,203.743z
			 M301.738,348.812c-14.507,9.25-31.555,13.512-48.427,15.795c-11.346-1.71-22.68,2.131-34.037,0.328
			c-10.444-1.721-21.192-2.904-30.805-7.658c-7.06-3.606-14.975-6.639-19.881-13.207c-9.062-10.971-13.933-24.974-15.127-39.06
			c17.236,7.798,33.896,16.86,51.471,23.886c51.282,18.574,81.503,5.613,93.763,3.208
			C304.422,344.365,307.172,345.421,301.738,348.812z M320.472,237.756c1.065-0.984,2.669-3.887,4.203-1.803
			c4.496,2.974,2.927,9.402-0.117,12.856c-3.97,4.953-10.924,4.847-16.673,5.667C311.503,248.493,316.21,243.282,320.472,237.756z
			 M289.596,275.762c-10.526-2.61-21.942-3.477-31.133-9.741c-7.236-4.814-14.537-24.443,2.248-36.753
			c7.938-5.668,18.125-7.903,27.749-6.71c9.402,1.311,18.898,2.576,27.878,5.819c-13.901,21.11-13.654,22.18-16.158,23.347
			c-5.573-2.482-9.905-7.037-15.35-9.718c-2.903-0.855-5.96,1.393-4.777,4.555c4.847,5.374,11.416,8.688,17.106,13.032
			c-0.093,4.789-1.311,9.519-2.704,14.085C294.033,275.891,291.469,276.511,289.596,275.762z M164.396,275.786
			c3.219-5.051,3.731-8.764,18.781,2.249c3.395,2.786,7.927,3.922,10.748,7.458c1.511-0.305,3.021-0.597,4.531-0.901
			c0.807,1.241,1.533,2.564,2.517,3.7c2.049,0.96,4.402,0.281,6.568,0.784c1.487,1.253,2.342,3.056,3.431,4.648
			c4.087,0.164,7.061,2.845,9.414,5.936c2.47-0.152,4.964-0.258,7.446-0.281c3.644,7.496,2.472,6.135,10.175,4.52
			c3.731,5.176,1.328,4.605,9.343,4.941c4.472,2.752,9.378,0.75,14.109,0.094c4.707-1.253,7.084,5.023,11.72,4.121
			c6.299-0.855,12.387-3.36,18.851-2.997c3.232,3.793,3.771,9.156,4.485,13.91c0.527,3.29-3.548,3.196-5.702,3.677
			c-15.139,2.202-30.583,5.995-45.886,2.916c-20.776-3.607-36.13-17.831-86.398-32.374
			C150.932,296.266,156.725,289.612,164.396,275.786z M90.667,278.397c26.458-19.633,58.509-11.904,69.327-11.264
			c-1.733,4.929-4.883,9.179-6.85,14.015c-1.944,4.039-3.08,8.419-5.035,12.458c-1.1,2.401-4.074,0.843-5.971,0.656
			c-29.967-7.739-56.813,6.827-66.552,11.428C75.692,294.707,81.874,284.673,90.667,278.397z"/>
	</g>
	<g>
		<path d="M863.131,1569.273c21.729-4.184,28.12,18.715,16.532,26.473c-6.053,4.672-16.135,1.639-18.476-5.644
			c-1.253-2.447,1.464-3.887,3.279-4.789c2.458,0.491,4.683,1.721,7.107,2.341c3.899,0.574,7.529-4.836,4.719-8.009
			c-5.726-6.545-16.919-5.082-21.614,1.944c-11.965,15.493,4.109,43.103,56.564,44.446c29.002,0.982,60.364-8.159,62.149-24.061
			c1.314-15.493-11.478-30.086-17.879-23.733c-1.815,1.944-4.215,5.796-1.335,7.786c3.197,3.231,8.208,1.732,12.212,2.892
			c2.377,2.529-0.796,6.124-2.658,8.079c-6.112,4.777-15.35,0.679-18.008-6.077c-3.22-6.299-0.784-14.753,5.527-18.09
			c16.312-9.895,31.372,11.642,29.436,27.796c-2.923,26.124-56.622,49.735-106.713,29.132
			C838,1613.404,838.449,1573.951,863.131,1569.273z"/>
		<path d="M60.412,1356.837c2.225,2.341,5.503,4.309,5.925,7.798c0.438,3.25-0.026,37.729,34.458,49.047
			c27.822,8.753,41.393,3.489,61.353,1.171c7.295-1.065,12.177,5.737,18.511,8.056c22.806,8.687,28.018,4.983,48.79-3.056
			c4.309-1.16,4.028-9.098-0.784-9.074c-7.824,0.48-9.697,11.709-30.501,9.109c-8.044-1.148-16.603-2.553-22.68-8.43
			c2.658-1.557,5.269-3.231,8.091-4.496c4.332-2.177,9.741,0.316,13.793-2.693c4.941-3.431,10.444-6.089,14.858-10.245
			c1.592,0.305,3.196,0.644,4.812,0.808c1.92-1.393,2.693-3.817,3.899-5.772c2.178,0.55,4.344,1.171,6.592,1.288
			c1.393-2.494,1.979-5.327,2.728-8.067c2.505,0.901,4.999,2.049,7.704,2.154c1.592-1.463,2.88-3.231,4.238-4.918
			c1.768,0.176,3.548,0.27,5.327,0.27c1.675-1.03,3.056-2.447,4.52-3.746c1.885,0.398,3.77,0.925,5.714,0.96
			c2.646-1.909,4.496-5.433,8.185-5.327c8.266-0.48,16.766-0.843,24.916,0.667c3.22,4.332,1.862,10.538,1.264,15.549
			c-3.044,0.808-6.229,0.843-9.343,1.276c-47.536,5.836-56.372,58.929-9.882,70.182c14.811,3.36,30.466,0.772,44.001-5.877
			c5.831-3.314,10.983,1.909,15.584,4.871c21.1,12.826,44.325,28.034,99.956,26.063c10.596-0.749,20.947-4.344,31.602-4.109
			c3.288,2.787,16.238,24.005,47.677,12.271c2.892-1.206,6.393-2.283,7.833-5.351c-0.023-2.505-0.772-4.929-1.299-7.376
			c-8.407,1.791-13.547,11.053-22.598,10.561c-8.863-0.047-17.914-4.005-22.902-11.533c13.567-5.862,57.023-15.181,87.546-33.639
			c25.477,18.641,15.971,42.607-1.393,42.362c-4.812-0.421-8.395-4.18-12.938-5.468c-1.37,1.264-2.88,2.974-2.283,4.999
			c5.784,6.369,14.683,11.978,23.558,8.77c7.446-2.237,11.1-9.59,14.144-16.111c3.056,4.508,5.761,9.214,8.559,13.875
			c3.244,5.515,9.988,7.083,14.355,11.393c0.498,25.394,19.173,34.218,39.751,38.673c68.267,15.387,112.891-14.498,190.207-16.462
			c-18.904,1.185-34.896,15.099-42.502,16.474c-5.949,1.533-11.507,0.366-10.198,11.533c0.539,2.775,0.539,6.323,3.255,7.962
			c4.8-1.077,9.519-3.208,13.43-6.217c0.761-3.583-1.92-8.664,2.061-10.959c23.772-15.164,53.068-22.166,78.518-10.281
			c-11.018-0.797-22-3.021-33.077-2.295c-20.787,2.237-23.831,18.855-16.088,25.97c6.104,4.618,25.355,3.776,29.986-7.213
			c-6.334-0.585-11.17,4.73-17.422,4.555c-4.238,0.082-9.238-2.073-10.514-6.44c0.069-10.236,21.289-10.243,31.508-9.683
			c43.935,3.001,27.289,5.231,42.502,9.238c-0.457-2.728,0-6.006-2.213-8.079c-12.088-12.484-46.834-18.255-64.842-19.553
			c-38.99-3.203-56.415,8.413-116.887,16.123c-61.006,8.18-112.81-9.168-109.733-30.079c7.938,4.121,16.041,8.196,24.986,9.601
			c89.564,14.618,89.737-2.255,192.372-1.37c70.112,0.806,97.402,30.866,72.301,43.064c-3.161,1.651-7.341,1.077-9.706-1.662
			c-2.623-2.588-0.797-6.487-0.621-9.613c-1.745-0.094-3.77-1.054-5.222,0.328c-9.69,19.283,22.965,24.64,31.54,5.623
			c7.584,16.233,33.724,16.575,33.792-1.604c0.246-2.775-2.599-3.841-4.426-5.199c-0.668,3.255-0.691,6.697-1.874,9.835
			c-7.423,6.931-21.321,0.901-22.024-9.074c-0.351-7.33,4.169-14.144,10.198-17.996c16.132-10.974,58.182-15.772,64.468-16.123
			c62.118-2.227,101.007,19.786,193.426,2.131c10.269-1.698,19.214-7.295,28.616-11.393c-3.058,18.24-14.118,25.817-33.381,30.501
			c-92.444,20.813-185.277-43.103-256.056,5.995c-2.517,1.417-2.33,4.52-2.787,6.967c23.58-4.068,29.419-13.653,62.641-6.299
			c13.003,4.047,15.503,18.047-0.55,17.692c-7.247,0.386-13.043-4.543-19.624-6.686c0.351,2.038,0.141,4.426,1.686,6.03
			c5.971,6.522,15.842,8.149,24.108,5.761c7.962-2.494,12.927-13.043,8.008-20.315c-8.134-13.858-47.309-8.329-55.546-7.54
			c26.569-11.871,63.818-5.121,86.316,11.861c0.285,14.743-0.049,13.017,10.128,14.683c3.559,0.726,7.259-2.529,6.78-6.182
			c-0.082-2.424,0.117-4.976-0.679-7.306c-2.213-2.365-5.573-3.067-8.419-4.379c-5.971-2.143-10.105-7.388-15.959-9.741
			c-9.332-3.852-19.12-6.428-28.674-9.636c24.448,2.564,48.907,5.936,72.652,12.458c38.409,10.533,107.309,14.817,134.638,1.229
			c10.491-5.128,15.936-16.135,20.267-26.379c1.452-3.103,1.019-6.545,0.422-9.789c26.595-19.052,16.792-16.43,25.197-29.213
			c0.62,4.285,0.691,8.688,1.92,12.868c6.109,18.945,35.06,16.133,35.664-1.229c-3.279,0.176-6.475,0.878-9.484,2.202
			c-9.466,3.95-24.621-0.657-19.705-21.11c1.78-7.143,7.494-12.177,12.001-17.669c33.706,15.629,39.293,22.269,87.159,33.967
			c-22.236,21.771-37.086,3.236-43.076,2.529c-6.316,7.252,13.233,19.471,34.517,11.229c5.245-2.283,8.395-7.423,13.231-10.304
			c2.54-1.686,5.678-0.737,8.442-0.246c38.315,9.07,91.414,9.651,123.046-14.554c5.316-3.466,9.882-8.313,15.83-10.678
			c7.485,2.1,16.27,10.723,42.385,10.374c55.607-1.526,46.64-54.665,11.802-68.167c-6.522-2.611-13.676-2.54-20.338-4.485
			c-0.714-5.375-0.106-10.889,0.492-16.264c4.859-2.588,10.959-0.843,15.643,1.534c3.138,2.119,6.627-0.199,9.976-0.386
			c2.845,1.299,4.379,4.402,6.99,6.124c1.768-0.398,3.501-1.03,5.257-1.627c4.133,8.032,14.624,7.353,20.818,12.809
			c1.745,1.662,4.297,0.457,6.428,0.469c1.37,1.662,2.33,3.922,4.273,4.999c1.99,0.023,3.723-1.487,5.585-2.166
			c1.264,2.342,2.318,4.883,4.238,6.803c2.201-0.257,4.379-0.808,6.557-1.323c0.925,1.85,1.791,3.746,3.021,5.433
			c2.447-0.257,4.812-0.972,7.282-1.299c2.237,1.604,3.595,4.789,6.72,4.824c5.573,0.504,10.584,3.126,15.455,5.726
			c-12.903,7.118-28.359,11.557-42.983,7.681c-3.735-0.714-8.196-2.353-11.358,0.656c0.281,2.752,2.366,4.824,5.082,5.222
			c40.16,8.493,45.489-4.52,53.262-9.121c9.622-4.925,14.016,5.627,42.045,2.002c7.459-1.019,15.245-1.299,22.164-4.636
			c32.426-14.281,32.594-38.865,34.248-46.729c1.869-9.609,27.494-15.781,28.908-56.846c0.106-4.543,0.434-9.472-2.049-13.512
			c-3.161-5.234-8.418-9.964-14.823-10.163c-4.063-0.117-8.36-0.55-12.224,0.89c-2.646,1.112-4.883,5.819-1.335,7.236
			c5.588,0.75,17.818-9.069,22.106,10.397c4.234,18.886-10.293,42.287-21.579,52.525c-1.44-8.512-4.964-16.884-11.369-22.832
			c-25.92-23.984-63.327-3.806-51.693-0.012c8.875,0.925,16.825-5.573,25.748-4.028c15.222,2.857,29.166,15.151,30.911,31.04
			c-4.113,5.364-26.176,11.815-34.412,12.177c-29.832,1.304-32.693-0.097-32.503-3.77c2.991-73.724-97.095-92.885-153.196-58.297
			c-2.646,1.546-5.21,3.36-8.196,4.121c-7.503-8.012-16.655-31.179-43.662-32.094c-11.988-0.265-28.257-3.361-28.51,21.731
			c1.03,1.475,2.505,2.541,3.852,3.735c3.337-4.754,4.074-10.643,6.674-15.725c2.997-4.883,9.578-3.607,14.437-3.993
			c23.002-1.469,38.087,26.534,41.425,30.957c-28.538,20.82-26.105,15.927-27.925,25.385c12.779-0.898,3.3-1.369,30.864-18.617
			c1.627,4.005,3.583,7.95,4.449,12.212c-6.815,6.627-17.048,8.056-24.459,13.898c-1.815,1.347-2.67,5.339,0.293,5.655
			c7.521,1.562,7.815-7.892,26.777-11.205c4.145,3.443,2.307,10.081,2.974,14.894c-10.842,3.15-21.942,5.538-32.55,9.402
			c-4.859,1.206,0.023,8.746,3.677,5.726c8.84-4.367,18.547-6.791,28.3-8.021c2.342,4.239,1.592,9.461,1.405,14.12
			c-0.464,5.592-9.207-0.042-31.473,8.851c-2.88,1.124-5.901,3.372-5.515,6.861c11.732-0.187,23.031-4.625,34.833-4.344
			c-1.803,5.375-2.482,11.686-6.334,15.982c-5.831-0.058-11.849-1.686-17.504,0.504c-12.325,3.5-18.269,16.975-6.932,30.49
			c-32.024,18.832-53.203,27.137-102.087,25.783c-11.346-0.55-22.867-0.597-33.978-3.185c-0.035-3.349-0.972-6.99,0.691-10.105
			c4.637-1.85,9.789-0.913,14.671-1.054c95.937,3.334,118.372-55.099,108.844-95.473c-5.777-18.967-29.171-19.704-30.197-7.177
			c-1.358,6.393,5.386,13.137,11.744,10.924c5.023-2.341,2.81-8.524,2.154-12.715c3.067,2.599,6.288,5.187,8.407,8.676
			c6.749,10.846,5.194,38.125-9.542,57.618c-26.79,35.423-80.67,31.429-100.87,31.391c-4.356,0.234-7.868-2.611-9.695-6.369
			c-7.54-13.114-22.305-19.694-36.437-22.973c-25.337-6.029-49.327,7.826-56.775,8.781c-6.381-0.012-8.606-9.144-15.268-8.22
			c-2.505-0.445-4.73,2.904-2.588,4.66c3.618,3.466,8.266,5.643,12.013,8.98c-4.039,4.402-7.986,8.934-11.018,14.097
			c-2.084-11.884-10.057-22.539-20.923-27.808c-6.159-2.845-13.207-2.166-19.694-1.135c-11.31,1.675-16.755,18.031-8.758,26.18
			c2.459,2.623,5.772,5.375,9.636,4.812c6.089-5.587-6.339-9.459-8.407-16.052c0.356-7.977,17.318-15.296,27.913-8.489
			c11.417,7.148,24.345,28.226-2.248,55.885c-2.459,2.646-6.17,3.08-9.496,3.746c-2.318-3.067-4.601-6.721-8.583-7.716
			c-7.201-2.049-16.369,1.007-19.483,8.173c1.347,1.452,3.36,2.201,5.351,1.885c3.478-2.026,6.194-6.124,10.702-5.738
			c4.063-0.129,6.229,3.723,8.36,6.533c-28.422,20.624-106.303,9.67-140.737,9.402c-24.261-0.263-152.75-8.326-161.169,33.264
			c-18.182-25.964-54.499-27.21-62.512-28.031c-12.493-1.171-24.717-4.496-37.292-4.789c-12.891-0.937-25.829-0.281-38.72-1.054
			c-7.88-0.398-15.631,1.487-23.499,1.347c-71.076-1.32-83.24,13.024-139.45-4.168c-1.616-0.585-4.789-1.745-3.583-4.005
			c1.171-5.831,8.407-9.8,13.664-6.404c2.962,1.393,5.234,5.245,8.887,4.285c2.588-10.397-11.837-16.275-19.647-11.72
			c-4.578,1.885-6.616,6.522-9.063,10.432c-4.039-1.206-6.498-4.976-9.484-7.693c-16.825-15.484-13.801-43.58-2.389-51.588
			c17.747-11.887,31.56-4.732,30.361,5.281c-1.112,5.211-5.479,9.086-6.205,14.472c3.454-0.398,7.353-0.621,9.917-3.349
			c5.948-5.175,7.587-15.619,1.299-21.169c-10.737-9.227-27.562-8.911-39.119-1.347c-6.967,4.777-9.238,13.418-11.287,21.122
			c-4.25-4.356-9.015-8.161-13.547-12.236c10.595-7.907,15.419-9.056,11.837-15.479c-6.99,1.276-10.995,8.266-17.692,10.163
			c-1.763-0.01-23.877-13.965-51.647-9.308c-31.221,5.427-33.355,15.925-40.875,21.708c-2.965,2.221-77.674,16.229-110.307-34.669
			c-9.012-14.155-13.555-44.687,0.48-57.431c2.646,4.192,4.344,11.358,10.315,11.439c5.327-1.78,9.683-8.442,7.892-14.004
			c-4.304-7.126-24.874-9.208-32.163,11.802c-7.3,21.782,2.981,60.432,29.353,75.65c47.604,26.862,77.348,13.449,89.665,16.79
			c1.229,4.484,0.527,9.285,0.316,13.863c-6.257,2.932-47.535,4.393-68.05,0.55c-19.124-3.634-60.715-19.073-65.475-25.42
			c1.135-5.257,5.971-9.191,5.866-14.823c-0.246-6.229-4.402-12.037-9.929-14.776c-6.264-2.763-13.348-1.885-19.869-3.607
			c-1.909-4.426-2.868-9.191-4.391-13.757c24.205-2.09,28.593,12.553,37.386,8.43c6.857-8.828-36.735-20.316-37.421-20.643
			c-2.447-3.665-2.424-8.723-0.608-12.657c5.892-3.873,24.432,15.091,30.232,7.857c-0.176-4.18-4.157-6.381-7.376-8.173
			c-15.524-8.799-28.454-3.133-20.326-20.689c5.845-1.563,17.99,10.948,25.127,12.774c3.36,0.691,5.539-3.138,2.693-5.362
			c-7.411-6.756-15.865-12.821-25.584-15.76c2.038-3.946,3.618-8.208,6.452-11.697c8.954,3.071,18.895,21.124,28.452,22.633
			c0.351-1.85,0.749-3.688,0.901-5.573c-1.36-6.063-23.514-20.837-25.408-25.63c4.68-7.585,32.966-35.681,48.767-32.597
			c3.911,1.662,6.205,5.62,8.407,9.051c3.243,5.058-1.768,10.117-2.47,15.162c3.782,2.986,10.233,0.281,10.725-4.531
			c2.283-9.741-3.22-19.343-11.146-24.717c0.186-0.13,0.376-0.261,0.565-0.392h-27.861c1.341,0.441,2.724,0.832,4.16,1.156
			c-31.001,18.385-32.017,27-37.76,33.323c-4.175-1.423-22.829-19.542-66.282-25.173c-22.264-2.603-49.742,6.12-57.267,10.339
			c-15.652,8.565-34.773,30.741-38.065,47.829c-1.229,5.327-0.257,10.807-0.714,16.181c-0.058,2.307-3.138,2.177-4.754,2.505
			c-34.408,2.237-31.934,0.837-42.621-2.938c-14.06-5.215-28.697-8.918-22.703-19.12c5.517-9.794,24.461-22.146,38.322-20.291
			c5.901,0.527,10.725,4.192,15.971,6.533c2.096,1.171,4.379-0.141,6.522-0.527c-6.784-17.714-41.776-19.05-59.164-1.639
			c-5.269,4.73-7.482,11.615-10.409,17.833c-8.934-9.741-16.006-21.825-17.68-35.114c-1.633-8.513-7.217-24.087,7.494-23.558
			c5.375,0.398,8.571,5.257,12.856,7.857c4.636,1.065,7.212-6.124,3.841-8.922c-3.279-3.618-8.454-3.677-12.868-4.73
			c0.094-0.316,0.293-0.948,0.386-1.264c1.835,0.282,3.719,0.176,5.508-0.278h-7.482c0.317,0.443,0.657,0.918,0.873,1.211
			c-4.496,0.457-9.613,0.176-13.313,3.231C36.983,1300.256,38.531,1336.936,60.412,1356.837z M1684.855,1383.222
			c-11.802-3.49-22.34-10.151-33.112-15.947c-31.001-16.426-75.71-25.689-109.487-16.275c-3.864,1.721-4.894-2.81-5.995-5.41
			c-0.913-2.845-3.408-5.292-3.255-8.372c1.475-2.131,4.039-3.032,6.311-4.086c32.419-12.853,33.981-6.385,45.313-10.046
			c18.604-5.125,60.256-1.502,77.815,12.411C1677.396,1346.258,1686.212,1364.816,1684.855,1383.222z M1676.202,1422.083
			c5.327-7.376,10.596-15.104,12.833-24.061c0.703-1.616,0.772-4.601,3.15-4.555c30.938-0.099,26.332,5.411,66.201-10.76
			c-3.325,9.507-6.053,19.94-14.004,26.79C1724.488,1426.614,1702.116,1426.227,1676.202,1422.083z M1544.023,1373.422
			c-0.925-4.964-2.658-9.882-2.623-14.964c7.428-4.067,31.249-6.735,53.661-2.845c20.244,4.59,37.315,17.094,56.12,25.256
			c10.092,4.461,21.11,6.452,31.239,10.748c0.152,0.445,0.469,1.347,0.633,1.803c-2.33,6.791-5.866,13.114-8.805,19.659
			c-1.37,2.342-2.342,5.819-5.479,6.205c-3.841-0.832-7.342-2.717-10.831-4.438c-3.36-1.546-4.473-5.327-6.697-7.973
			c-2.154,0.363-4.192,1.065-6.253,1.675c-0.995-1.897-1.639-4.051-3.115-5.632c-2.576-1.78-5.819-0.176-8.606-0.012
			c-0.07-1.417-0.117-2.833-0.152-4.25c-3.349-1.135-6.896-1.065-10.35-1.393c-0.363-1.592-0.761-3.173-1.218-4.73
			c-2.517-1.112-5.327-0.293-7.927-0.234c-0.726-1.592-1.288-3.267-2.271-4.707c-2.576-0.773-5.281,0.023-7.868,0.211
			c-0.866-1.604-0.972-3.852-2.576-4.929c-1.92-0.293-3.852-0.012-5.749,0.035c-0.831-1.124-1.604-2.295-2.494-3.349
			c-2.108,0.035-4.133,0.457-6.17,0.808c-1.229-1.639-1.909-4.192-4.18-4.636c-2.857,0.585-5.444,2.026-8.301,2.517
			c-4.18-0.187-6.452-5.222-10.549-5.281c-3.817,1.276-7.622,2.787-11.709,2.658
			C1549.151,1375.542,1544.843,1376.947,1544.023,1373.422z M1516.239,1455.558c3.115-6.018,8.149-10.783,12.013-16.333
			c2.096-2.283,3.677-6.018,7.154-6.288c7.212,3.618,12.318,10.643,20.174,13.184c0.444-2.424,2.81-5.491,0.444-7.587
			c-4.332-4.25-8.828-8.816-14.776-10.69c-1.347-0.843-3.91-0.679-4.109-2.646c5.569-14.775,4.219-16.881,11.041-14.788
			c11.31,3.63,23.874,6.147,32.457,15.046c13.867,13.547-2.174,35.894-22.867,39.013c-12.06,1.885-24.027-1.675-35.454-5.141
			C1520.138,1458.462,1517.117,1458.099,1516.239,1455.558z M1514.026,1431.813c4.039-1.639,8.828-3.653,13.02-1.288
			c-0.474,0.689-15.014,19.813-16.801,21.286c-0.34-0.035-1.019-0.117-1.37-0.164
			C1502.832,1440.193,1505.172,1436.118,1514.026,1431.813z M1279.525,1444.914c12.214-5.049,48.409-8.03,72.055,5.948
			c3.372,1.885,8.196,2.868,8.699,7.494c-22.599-3.112-41.484-16.584-43.404-9.917c1.297,11.806,47.53,11.828,46.6,19.94
			c0.071,2.927,0.785,9.32-3.618,8.77c-24.997-8.138-50.967-14.25-74.092-27.177
			C1283.635,1448.497,1279.947,1447.771,1279.525,1444.914z M474.534,1454.914c29.214-6.232,30.848-6.458,34.329-8.43
			c1.92-1.042,2.366-4.145-0.316-4.543c-10.983,0-21.111,4.953-31.883,6.334c9.308-7.985,22.153-11.182,34.248-10.912
			c7.809-0.045,24.027-3.787,43.029,3.279c-11.425,7.377-52.899,25.57-84.29,30.817
			C468.623,1467.224,465.285,1456.819,474.534,1454.914z M298.694,1343.096c-12.26-2.405-42.481-15.366-93.763,3.208
			c-17.575,7.025-34.235,16.088-51.471,23.885c1.194-14.085,6.065-28.089,15.127-39.06c4.906-6.568,12.821-9.601,19.881-13.207
			c9.613-4.754,20.361-5.936,30.805-7.658c11.358-1.803,22.691,2.038,34.037,0.328c16.872,2.283,33.92,6.545,48.427,15.795
			C307.172,1329.78,304.422,1330.836,298.694,1343.096z M307.885,1420.724c5.749,0.82,12.704,0.714,16.673,5.667
			c3.044,3.454,4.613,9.882,0.117,12.856c-1.534,2.084-3.138-0.819-4.203-1.803C316.21,1431.918,311.503,1426.708,307.885,1420.724z
			 M294.455,1401.523c1.393,4.566,2.611,9.297,2.704,14.085c-5.69,4.344-12.259,7.658-17.106,13.032
			c-1.183,3.161,1.874,5.41,4.777,4.555c5.444-2.681,9.777-7.236,15.35-9.718c2.503,1.167,2.256,2.237,16.158,23.347
			c-8.98,3.243-18.476,4.508-27.878,5.819c-9.624,1.194-19.81-1.042-27.749-6.71c-16.786-12.31-9.484-31.939-2.248-36.753
			c9.191-6.264,20.607-7.131,31.133-9.741C291.469,1398.689,294.033,1399.309,294.455,1401.523z M158.53,1377.016
			c50.268-14.543,65.622-28.768,86.398-32.374c15.303-3.08,30.747,0.714,45.886,2.916c2.154,0.48,6.229,0.386,5.702,3.677
			c-0.714,4.754-1.253,10.117-4.485,13.91c-6.463,0.363-12.551-2.142-18.851-2.997c-4.636-0.901-7.013,5.375-11.72,4.121
			c-4.73-0.656-9.636-2.658-14.109,0.094c-8.016,0.336-5.612-0.235-9.343,4.941c-7.703-1.616-6.531-2.977-10.175,4.52
			c-2.482-0.023-4.976-0.129-7.446-0.281c-2.353,3.091-5.327,5.772-9.414,5.936c-1.089,1.592-1.944,3.395-3.431,4.648
			c-2.166,0.504-4.52-0.176-6.568,0.784c-0.984,1.135-1.71,2.459-2.517,3.7c-1.511-0.305-3.021-0.597-4.531-0.901
			c-2.822,3.536-7.353,4.672-10.748,7.458c-15.049,11.013-15.562,7.3-18.781,2.249
			C156.725,1385.589,150.932,1378.935,158.53,1377.016z M75.586,1369.511c9.739,4.601,36.584,19.167,66.552,11.428
			c1.897-0.187,4.871-1.745,5.971,0.656c1.955,4.039,3.091,8.419,5.035,12.458c1.967,4.836,5.117,9.086,6.85,14.015
			c-10.818,0.64-42.869,8.368-69.327-11.264C81.874,1390.528,75.692,1380.494,75.586,1369.511z"/>
	</g>
</g>
</svg>
